<svg width="20" height="14" viewBox="0 0 20 14" fill="none" xmlns="http://www.w3.org/2000/svg">
<path d="M20 2V0.799001C20.0001 0.694038 19.9796 0.59008 19.9394 0.493081C19.8993 0.396082 19.8405 0.307949 19.7663 0.233729C19.6921 0.159509 19.6039 0.10066 19.5069 0.0605527C19.4099 0.0204459 19.306 -0.000130988 19.201 6.27412e-07H0.801001C0.695943 -0.000130777 0.591888 0.0204317 0.494778 0.0605141C0.397667 0.100597 0.309402 0.159414 0.235022 0.233608C0.160642 0.307802 0.101605 0.39592 0.0612795 0.49293C0.0209545 0.58994 0.000131866 0.693943 6.2584e-07 0.799001V2H2V4H6.2584e-07V6H2V8H6.2584e-07V10H2V12H6.2584e-07V13.199C-0.000130989 13.3042 0.0204977 13.4084 0.0607051 13.5057C0.100912 13.6029 0.159909 13.6913 0.234315 13.7657C0.308721 13.8401 0.397074 13.8991 0.494316 13.9393C0.591557 13.9795 0.695775 14.0001 0.801001 14H19.201C19.3061 13.9999 19.4101 13.979 19.5071 13.9387C19.6041 13.8984 19.6922 13.8394 19.7664 13.765C19.8406 13.6906 19.8994 13.6023 19.9395 13.5052C19.9796 13.4081 20.0001 13.3041 20 13.199V12H18V10H20V8H18V6H20V4H18V2H20ZM8 10V4L13 7L8 10Z" fill="black"/>
</svg>
